<svg width="378" height="112" viewBox="0 5 378 112" fill="none" xmlns="http://www.w3.org/2000/svg">
<g>
<path d="M75.072 15.6189C72.2662 15.7928 70.0285 17.6015 69.6053 19.7001C69.0545 22.4711 71.6285 25.9669 75.7039 26.1118C83.1475 26.1929 90.5911 26.2741 98.0347 26.3553C101.31 26.4422 104.58 26.5292 107.855 26.6161C111.096 27.1437 113.426 29.9031 113.409 32.8945C113.391 36.3148 110.319 39.3178 106.528 39.1729C102.441 39.1903 98.3594 39.2076 94.2723 39.2192C88.2027 39.1903 82.1272 39.1613 76.0576 39.1323C72.4285 39.0221 69.2806 41.6715 68.7705 45.1903C68.2429 48.831 70.6778 52.3557 74.3474 53.1499C83.3098 53.2427 92.2723 53.3412 101.235 53.434C101.832 53.4919 104.441 53.8166 106.377 56.0717C107.907 57.8514 108.481 60.3384 108.104 62.2515C107.351 66.0776 102.47 69.3125 96.197 68.9588C84.3533 69.1212 72.5039 69.2835 60.6602 69.44C55.3152 69.2197 51.5702 73.5386 52.005 77.2604C52.3354 80.0779 55.0833 82.6924 58.7471 83.2199C72.3531 83.2721 85.9592 83.3243 99.5652 83.3765C102.672 83.4692 105.096 86.0606 105.032 88.9881C104.968 92.0839 102.139 94.652 98.8637 94.339C92.8926 94.5071 86.9273 94.681 80.9562 94.8491C77.5996 95.4926 75.1068 97.6376 74.9387 99.7593C74.7184 102.49 78.2605 106.142 83.6635 105.817C93.9245 105.707 104.186 105.597 114.447 105.481C117.983 108.496 124.4 113.22 133.705 116.165C154.279 122.681 181.074 118.021 196.332 101.591C204.877 92.3969 207.422 82.0779 208.176 75.2952C208.21 75.2952 210.889 75.2952 210.923 75.2952C211.839 75.2952 212.755 75.2952 213.671 75.2952C215.735 77.9793 217.799 80.6634 219.863 83.3475H226.593C228.477 80.6692 230.361 77.9967 232.246 75.3184C235.295 75.3184 238.35 75.3242 241.399 75.33C242.924 73.3067 244.449 71.2835 245.973 69.2603C247.678 69.1849 249.382 69.1096 251.086 69.0342C252.704 71.1386 254.315 73.243 255.933 75.3474C258.982 75.3474 262.037 75.3474 265.087 75.359C266.524 73.3299 267.962 71.3009 269.394 69.2661H272.895C274.78 71.3009 276.664 73.3357 278.548 75.3763C281.151 75.3763 283.754 75.3763 286.357 75.3821C287.701 73.3415 289.052 71.3067 290.397 69.2661C291.922 69.04 293.447 68.8139 294.971 68.582C297.11 70.7676 299.25 72.9473 301.394 75.1329C303.922 75.1445 306.444 75.1618 308.971 75.1734C318.67 70.1009 328.369 65.0283 338.067 59.9558C328.421 54.3441 318.774 48.7324 309.128 43.1265C304.931 45.115 300.728 47.1092 296.531 49.0977C296.577 51.7818 296.623 54.4659 296.67 57.15C273.261 57.5152 249.857 57.8862 226.448 58.2514C226.361 55.6601 226.269 53.0745 226.182 50.4832C249.631 50.0252 273.075 49.5614 296.525 49.1035C300.722 47.115 304.925 45.1208 309.122 43.1323C305.632 42.5236 302.148 41.9149 298.658 41.3062C275.759 41.828 252.866 42.3497 229.967 42.8715C225.857 42.8889 221.747 42.9063 217.637 42.9236C214.095 42.9179 210.558 42.9063 207.016 42.9005C205.399 39.0163 202.825 34.0423 198.662 28.8423C195.52 24.9118 192.257 21.8277 189.41 19.4914C177.445 26.019 165.479 32.5525 153.52 39.0801C154.511 39.1555 165.978 40.2569 171.734 50.4368C172.366 51.5557 176.604 59.3471 173.439 68.24C170.268 77.1503 161.433 82.1938 153.201 82.7098C151.966 82.7851 139.67 83.3475 132.882 73.1966C128.429 66.5472 128.221 58.1007 131.548 51.3933C135.519 43.3758 144.215 38.5004 153.52 39.0743C165.485 32.5467 177.45 26.0132 189.41 19.4856C185.514 16.6276 170.343 6.18683 148.534 7.05061C134.186 7.61873 123.728 12.8072 118.876 15.6189L75.0604 15.6305L75.072 15.6189Z" fill="#0063A0"/>
</g>
<path d="M28.4806 15.7227H54.7013C57.8086 15.7227 60.3362 18.2444 60.3362 21.3575C60.3362 24.4648 57.8144 26.9924 54.7013 26.9924H28.4806C25.3733 26.9924 22.8457 24.4706 22.8457 21.3575C22.8457 18.2502 25.3675 15.7227 28.4806 15.7227Z" fill="#0063A0"/>
<path d="M38.5224 57.1025H7.17113C3.21062 57.1025 0 60.3132 0 64.2737C0 68.2342 3.21062 71.4448 7.17113 71.4448H38.5224C42.4829 71.4448 45.6935 68.2342 45.6935 64.2737C45.6935 60.3132 42.4829 57.1025 38.5224 57.1025Z" fill="#0063A0"/>
<path d="M31.0733 95.9219H52.1056C55.2129 95.9219 57.7404 98.4437 57.7404 101.557C57.7404 104.664 55.2187 107.192 52.1056 107.192H31.0733C27.9661 107.192 25.4385 104.67 25.4385 101.557C25.4385 98.4495 27.9603 95.9219 31.0733 95.9219Z" fill="#0063A0"/>
<path d="M53.6817 51.5963C57.6518 51.5963 60.8702 48.3779 60.8702 44.4078C60.8702 40.4376 57.6518 37.2192 53.6817 37.2192C49.7116 37.2192 46.4932 40.4376 46.4932 44.4078C46.4932 48.3779 49.7116 51.5963 53.6817 51.5963Z" fill="#0063A0"/>
<path d="M21.9546 89.2734C25.1979 89.2734 27.8271 86.6442 27.8271 83.4009C27.8271 80.1576 25.1979 77.5283 21.9546 77.5283C18.7113 77.5283 16.082 80.1576 16.082 83.4009C16.082 86.6442 18.7113 89.2734 21.9546 89.2734Z" fill="#0063A0"/>
</svg>
